<?xml version="1.0" encoding="UTF-8"?>
<svg width="32px" height="32px" viewBox="0 0 32 32" version="1.1" xmlns="http://www.w3.org/2000/svg" xmlns:xlink="http://www.w3.org/1999/xlink">
    <!-- Generator: sketchtool 59.1 (101010) - https://sketch.com -->
    <title>16FE1020-E978-4612-BF9C-4E9EA38CA725</title>
    <desc>Created with sketchtool.</desc>
    <g id="mobile" stroke="none" stroke-width="1" fill="none" fill-rule="evenodd">
        <g id="01" transform="translate(-17.000000, -1129.000000)" fill="#4E5D78" fill-rule="nonzero">
            <g id="Group" transform="translate(17.000000, 1129.000000)">
                <g id="Telegram">
                    <path d="M13.3388954,19.2548356 L13.0666667,23.3333333 C13.4666667,23.3333333 13.6434,23.1504 13.8666667,22.9333333 L15.7884738,21.0646162 L19.7866667,24.0185333 C20.5224667,24.42452 21.05352,24.21432 21.2368,23.3354 L23.8614667,10.967 C24.1301867,9.88964 23.4507867,9.401 22.74688,9.72057333 L7.33488,15.6633733 C6.28286667,16.0853333 6.289,16.6722533 7.14312,16.9337733 L11.0981867,18.1682133 L20.2545867,12.3915467 C20.68684,12.1294267 21.08356,12.270348 20.7579467,12.5593333 L13.3386667,19.2546667 L13.3388954,19.2548356 Z M16,32 C7.163444,32 0,24.836556 0,16 C0,7.163444 7.163444,0 16,0 C24.836556,0 32,7.163444 32,16 C32,24.836556 24.836556,32 16,32 Z" id="Combined-Shape"></path>
                </g>
            </g>
        </g>
    </g>
</svg>