<?xml version="1.0" encoding="UTF-8"?>
<svg width="32px" height="32px" viewBox="0 0 32 32" version="1.1" xmlns="http://www.w3.org/2000/svg" xmlns:xlink="http://www.w3.org/1999/xlink">
    <!-- Generator: sketchtool 59.1 (101010) - https://sketch.com -->
    <title>D8DE5BB5-321E-463F-A1D5-A613B07DBE78</title>
    <desc>Created with sketchtool.</desc>
    <g id="mobile" stroke="none" stroke-width="1" fill="none" fill-rule="evenodd">
        <g id="01" transform="translate(-114.000000, -1129.000000)" fill="#4E5D78" fill-rule="nonzero">
            <g id="Group" transform="translate(17.000000, 1129.000000)">
                <g id="WhatsApp" transform="translate(97.000000, 0.000000)">
                    <path d="M16,32 C7.163444,32 0,24.836556 0,16 C0,7.163444 7.163444,0 16,0 C24.836556,0 32,7.163444 32,16 C32,24.836556 24.836556,32 16,32 Z M16.5273834,24.9016778 C21.7729924,24.8995358 26.0393234,20.6321796 26.0414295,15.387669 C26.0424357,12.8455556 25.0537292,10.4552129 23.2574709,8.65694069 C21.4612125,6.85857696 19.072426,5.86776512 16.5272918,5.86666667 C11.2832115,5.86666667 7.01518699,10.1344623 7.01309989,15.3801629 C7.01238592,17.056991 7.4504888,18.6936797 8.28307648,20.1365631 L6.93333333,25.0666667 L11.9768988,23.7436345 C13.3665343,24.5016183 14.9311364,24.9011286 16.5234472,24.9016778 L16.5273834,24.9016778 Z" id="Combined-Shape"></path>
                    <path d="M12.210578,22.0212567 L9.21765621,22.8063635 L10.016512,19.8882835 L9.82849211,19.5890901 C9.03691365,18.3300799 8.61883936,16.874912 8.61945202,15.3807121 C8.62118277,11.0207373 12.1686168,7.47362357 16.5304956,7.47362357 C18.6426531,7.47435589 20.6281214,8.29792704 22.121113,9.79265787 C23.6141045,11.2873887 24.4358449,13.2741385 24.4350217,15.3871198 C24.4332819,19.7474242 20.8858935,23.2948948 16.5273834,23.2948948 L16.5241795,23.2948948 C15.1051967,23.2943456 13.7134558,22.9131156 12.4993359,22.192635 L12.210578,22.0212567 Z M21.320518,17.6500868 C21.2611095,17.5509232 21.1026565,17.4914324 20.8649313,17.3723958 C20.627206,17.2534142 19.4584435,16.678379 19.2404905,16.5989694 C19.0226291,16.5196697 18.8640845,16.4800427 18.7056315,16.717951 C18.5471785,16.9559052 18.0915918,17.4914324 17.9529111,17.6500868 C17.8142304,17.8086954 17.6755497,17.8286141 17.437916,17.7095776 C17.2001907,17.5905959 16.4341972,17.3395885 15.5261636,16.5296565 C14.8194504,15.8992772 14.3423522,15.1208345 14.2036806,14.8828346 C14.0650091,14.6448348 14.1888972,14.5162233 14.3079062,14.397681 C14.4148597,14.2911303 14.5456498,14.1199535 14.6645033,13.9811812 C14.7833568,13.842409 14.8229746,13.7431813 14.9022194,13.5846368 C14.9814551,13.4259092 14.9418464,13.287137 14.8824013,13.168137 C14.8229746,13.0491371 14.3475515,11.8790015 14.1494532,11.4030017 C13.9564719,10.9394511 13.7604973,11.0022465 13.6145851,10.9949234 C13.4760783,10.9879665 13.3174239,10.9865019 13.1589618,10.9865019 C13.0004905,10.9865019 12.7429289,11.0460019 12.5250308,11.2840018 C12.3071327,11.5220017 11.6930107,12.0971375 11.6930107,13.2671815 C11.6930107,14.4373172 12.5448306,15.5677251 12.6637023,15.7263612 C12.7825558,15.8850887 14.3399905,18.2861964 16.7247402,19.3159212 C17.2919122,19.5608689 17.7346835,19.7071381 18.0799665,19.8166821 C18.6494269,19.9976627 19.1677174,19.9721235 19.5772603,19.9108843 C20.034037,19.8426607 20.9837481,19.3358491 21.1819288,18.7805679 C21.3799264,18.2251769 21.3799264,17.7492046 21.320518,17.6500868 Z" id="Combined-Shape"></path>
                </g>
            </g>
        </g>
    </g>
</svg>