<?xml version="1.0" encoding="UTF-8"?>
<svg width="16px" height="16px" viewBox="0 0 16 16" version="1.1" xmlns="http://www.w3.org/2000/svg" xmlns:xlink="http://www.w3.org/1999/xlink">
    <!-- Generator: Sketch 60.1 (88133) - https://sketch.com -->
    <title>instagram</title>
    <desc>Created with Sketch.</desc>
    <g id="menu" stroke="none" stroke-width="1" fill="none" fill-rule="evenodd" opacity="0.200000003">
        <g id="instagram" fill="#000000">
            <path d="M11.5345455,1.23636364 C13.141192,1.23636364 14.4436364,2.538808 14.4436364,4.14545455 L14.4436364,11.4181818 C14.4436364,13.0248284 13.141192,14.3272727 11.5345455,14.3272727 L4.26181818,14.3272727 C2.65517164,14.3272727 1.35272727,13.0248284 1.35272727,11.4181818 L1.35272727,4.14545455 C1.35272727,2.538808 2.65517164,1.23636364 4.26181818,1.23636364 L11.5345455,1.23636364 L11.5345455,1.23636364 Z M11.5345455,0.145454545 L4.26181818,0.145454545 C2.05267918,0.145454545 0.261818182,1.93631555 0.261818182,4.14545455 L0.261818182,11.4181818 C0.261818182,13.6273208 2.05267918,15.4181818 4.26181818,15.4181818 L11.5345455,15.4181818 C13.7436845,15.4181818 15.5345455,13.6273208 15.5345455,11.4181818 L15.5345455,4.14545455 C15.5345455,1.93631555 13.7436845,0.145454545 11.5345455,0.145454545 Z" id="Shape"></path>
            <path d="M7.89818182,4.50909091 C9.70565918,4.50909091 11.1709091,5.97434082 11.1709091,7.78181818 C11.1709091,9.58929554 9.70565918,11.0545455 7.89818182,11.0545455 C6.09070446,11.0545455 4.62545455,9.58929554 4.62545455,7.78181818 C4.62545455,5.97434082 6.09070446,4.50909091 7.89818182,4.50909091 L7.89818182,4.50909091 Z M7.89818182,3.41818182 C6.13325566,3.41818182 4.54211549,4.48134769 3.86670749,6.11192684 C3.19129949,7.742506 3.5646337,9.61938379 4.81262495,10.867375 C6.06061621,12.1153663 7.937494,12.4887005 9.56807316,11.8132925 C11.1986523,11.1378845 12.2618182,9.54674434 12.2618182,7.78181818 C12.2618182,5.37184836 10.3081516,3.41818182 7.89818182,3.41818182 L7.89818182,3.41818182 Z" id="Shape"></path>
            <circle id="Oval" cx="12.08" cy="3.23636364" r="1"></circle>
        </g>
    </g>
</svg>