<?xml version="1.0" encoding="UTF-8"?>
<svg width="9px" height="16px" viewBox="0 0 9 16" version="1.1" xmlns="http://www.w3.org/2000/svg" xmlns:xlink="http://www.w3.org/1999/xlink">
    <!-- Generator: Sketch 60.1 (88133) - https://sketch.com -->
    <title>phone</title>
    <desc>Created with Sketch.</desc>
    <g id="menu" stroke="none" stroke-width="1" fill="none" fill-rule="evenodd" opacity="0.200000003">
        <path d="M9,2.54545455 C9,1.13963882 7.91515151,0 6.57692308,0 L2.42307692,0 C1.08484849,0 0,1.13963882 0,2.54545455 L0,13.4545455 C0,14.8603612 1.08484849,16 2.42307692,16 L6.57692308,16 C7.91515151,16 9,14.8603612 9,13.4545455 L9,2.54545455 Z M1.03846154,3.27272727 L7.96153846,3.27272727 L7.96153846,12 L1.03846154,12 L1.03846154,3.27272727 Z M2.42307692,1.09090909 L6.57692308,1.09090909 C7.20663126,1.09305716 7.75565237,1.54130802 7.91307692,2.18181818 L1.08692308,2.18181818 C1.24434763,1.54130802 1.79336874,1.09305716 2.42307692,1.09090909 Z M6.57692308,14.9090909 L2.42307692,14.9090909 C1.65837496,14.9090909 1.03846154,14.2578687 1.03846154,13.4545455 L1.03846154,13.0909091 L7.96153846,13.0909091 L7.96153846,13.4545455 C7.96153846,14.2578687 7.34162504,14.9090909 6.57692308,14.9090909 Z" id="phone" fill="#000000"></path>
    </g>
</svg>